<svg width="21" height="15" viewBox="0 0 21 15" fill="none" xmlns="http://www.w3.org/2000/svg">
<path d="M7 0.375C3.13542 0.375 0 3.56641 0 7.5C0 11.4336 3.13542 14.625 7 14.625H14C17.8646 14.625 21 11.4336 21 7.5C21 3.56641 17.8646 0.375 14 0.375H7ZM14 3.9375C14.9283 3.9375 15.8185 4.31283 16.4749 4.98093C17.1313 5.64903 17.5 6.55517 17.5 7.5C17.5 8.44483 17.1313 9.35097 16.4749 10.0191C15.8185 10.6872 14.9283 11.0625 14 11.0625C13.0717 11.0625 12.1815 10.6872 11.5251 10.0191C10.8687 9.35097 10.5 8.44483 10.5 7.5C10.5 6.55517 10.8687 5.64903 11.5251 4.98093C12.1815 4.31283 13.0717 3.9375 14 3.9375Z" fill="url(#paint0_linear_584_777)"/>
<defs>
<linearGradient id="paint0_linear_584_777" x1="10.5" y1="0.375" x2="33.5971" y2="32.54" gradientUnits="userSpaceOnUse">
<stop stop-color="#EF8354"/>
<stop offset="1" stop-color="#F03800"/>
</linearGradient>
</defs>
</svg>
