<svg width="18" height="17" viewBox="0 0 18 17" fill="none" xmlns="http://www.w3.org/2000/svg">
<path d="M9.97926 0.597589C9.7986 0.232396 9.41683 0 8.99755 0C8.57828 0 8.19991 0.232396 8.01584 0.597589L6.05794 4.52112C5.91144 4.8147 5.63025 5.01773 5.30549 5.06443L0.929098 5.6937C0.52005 5.75346 0.179178 6.03233 0.053055 6.41413C-0.0730679 6.79592 0.0291938 7.21755 0.322344 7.49975L3.49222 10.5545C3.73113 10.7847 3.84029 11.1184 3.78362 11.4453L3.03569 15.7598C2.96752 16.1582 3.13795 16.5632 3.47542 16.7989C3.81288 17.0346 4.25942 17.0645 4.62756 16.8753L8.53961 14.841C8.8288 14.6906 9.17313 14.6906 9.46231 14.841L13.3744 16.8753C13.7425 17.0645 14.189 17.0379 14.5265 16.7989C14.864 16.5599 15.0344 16.1582 14.9662 15.7598L14.2153 11.4457C14.1584 11.1186 14.2675 10.7846 14.5066 10.5542L17.6762 7.49975C17.9693 7.21755 18.075 6.79592 17.9455 6.41413C17.8159 6.03233 17.4785 5.75346 17.0694 5.6937L12.6897 5.06439C12.3649 5.01772 12.0836 4.81467 11.9371 4.52106L9.97926 0.597589Z" fill="url(#paint0_linear_585_828)"/>
<defs>
<linearGradient id="paint0_linear_585_828" x1="9" y1="-5.4223e-07" x2="38.0793" y2="29.0958" gradientUnits="userSpaceOnUse">
<stop stop-color="#EF8354"/>
<stop offset="1" stop-color="#F03800"/>
</linearGradient>
</defs>
</svg>
