<svg width="17" height="17" viewBox="0 0 17 17" fill="none" xmlns="http://www.w3.org/2000/svg">
<path d="M17 14.4375C17 15.7475 16.0471 16.8125 14.875 16.8125H2.125C0.95293 16.8125 0 15.7475 0 14.4375V2.5625C0 1.25254 0.95293 0.1875 2.125 0.1875H6.375C7.04238 0.1875 7.67324 0.540039 8.075 1.1375L8.7125 2.0875C8.91172 2.38809 9.22715 2.5625 9.5625 2.5625H14.875C16.0471 2.5625 17 3.62754 17 4.9375V14.4375ZM7.70312 12.9531C7.70312 13.4467 8.0584 13.8438 8.5 13.8438C8.9416 13.8438 9.29688 13.4467 9.29688 12.9531V10.5781H11.4219C11.8635 10.5781 12.2188 10.1811 12.2188 9.6875C12.2188 9.19394 11.8635 8.79688 11.4219 8.79688H9.29688V6.42188C9.29688 5.92832 8.9416 5.53125 8.5 5.53125C8.0584 5.53125 7.70312 5.92832 7.70312 6.42188V8.79688H5.57812C5.13652 8.79688 4.78125 9.19394 4.78125 9.6875C4.78125 10.1811 5.13652 10.5781 5.57812 10.5781H7.70312V12.9531Z" fill="url(#paint0_linear_585_830)"/>
<defs>
<linearGradient id="paint0_linear_585_830" x1="8.5" y1="0.187499" x2="36.9211" y2="27.6507" gradientUnits="userSpaceOnUse">
<stop stop-color="#EF8354"/>
<stop offset="1" stop-color="#F03800"/>
</linearGradient>
</defs>
</svg>
