<svg width="21" height="21" viewBox="0 0 21 21" fill="none" xmlns="http://www.w3.org/2000/svg">
<path fill-rule="evenodd" clip-rule="evenodd" d="M13.4862 0.128833C13.4197 0.202274 13.3151 0.446979 13.2536 0.672703C12.8384 2.19771 12.8165 2.256 12.6301 2.32682C12.5296 2.365 12.0697 2.50311 11.6084 2.63363C11.147 2.76416 10.7104 2.92125 10.6382 2.98269C10.486 3.11194 10.4636 3.46804 10.6006 3.57824C10.6523 3.61973 11.1335 3.77966 11.6701 3.93352C12.2066 4.08745 12.6857 4.25174 12.7346 4.29863C12.7835 4.34551 12.9476 4.80581 13.0994 5.32155C13.2511 5.83729 13.4065 6.31829 13.4446 6.39054C13.5265 6.54559 13.9753 6.57163 14.0915 6.42804C14.1623 6.3405 14.3434 5.76902 14.6083 4.79643C14.6702 4.56951 14.7604 4.34551 14.8089 4.29863C14.8573 4.25174 15.3361 4.08745 15.8726 3.93352C16.4092 3.77966 16.8905 3.61973 16.9421 3.57824C17.042 3.49782 17.0654 3.23542 16.9902 3.0394C16.9651 2.97398 16.7541 2.86776 16.5212 2.80325C16.2883 2.73881 16.0134 2.65741 15.9102 2.62246C15.807 2.5875 15.5105 2.49868 15.2514 2.42509L14.7803 2.29126L14.5991 1.68715C14.4995 1.35498 14.363 0.889051 14.2958 0.651849C14.2285 0.414646 14.1228 0.169867 14.0609 0.107978C13.9088 -0.0440801 13.6337 -0.0341029 13.4862 0.128833ZM7.35287 6.04951C7.06401 6.24845 7.03865 6.29249 6.02852 8.34299C5.30545 9.81091 5.03866 10.2848 4.92092 10.3103C4.83559 10.3288 3.87087 10.4812 2.77707 10.6489C1.68327 10.8167 0.694759 10.9907 0.580463 11.0356C0.0713496 11.2356 -0.150787 11.8634 0.109549 12.3666C0.169586 12.4827 0.916146 13.249 1.7686 14.0695L3.31838 15.5613L3.27545 15.9364C3.25189 16.1427 3.09114 17.1732 2.91831 18.2265C2.60911 20.1108 2.60619 20.1459 2.73609 20.4195C2.89181 20.7476 3.26382 21 3.59155 21C3.72858 21 4.12903 20.8396 4.55829 20.6128C4.96136 20.3997 5.73014 19.9932 6.26672 19.7094C6.8033 19.4256 7.38176 19.1225 7.55219 19.0359L7.86198 18.8785L9.12816 19.5385C9.82451 19.9014 10.7402 20.3787 11.1631 20.5992C11.981 21.0255 12.2622 21.0798 12.6051 20.8773C13.0758 20.5994 13.1581 20.1618 12.9562 19.0121C12.8909 18.6407 12.7519 17.8137 12.6473 17.1742C12.5426 16.5346 12.443 15.927 12.4258 15.8239C12.3991 15.6638 12.6353 15.3945 14.038 13.9857C15.7968 12.219 15.8627 12.1235 15.6877 11.5934C15.5349 11.1308 15.224 10.9882 13.959 10.8009C13.6494 10.755 13.1935 10.6853 12.9458 10.646C12.6982 10.6066 12.1579 10.5222 11.7451 10.4584C11.3323 10.3945 10.9184 10.3259 10.8253 10.3059C10.6893 10.2767 10.4572 9.8725 9.64733 8.25424C8.99488 6.95061 8.56756 6.18297 8.43698 6.08034C8.18348 5.88102 7.62063 5.86497 7.35287 6.04951ZM18.1101 6.68678C18.0681 6.74049 17.9405 7.12945 17.8265 7.55119C17.7125 7.97293 17.5808 8.34899 17.5339 8.38688C17.487 8.42483 17.1109 8.54711 16.6982 8.65858C15.8612 8.88476 15.7601 8.94147 15.7601 9.1849C15.7601 9.27792 15.8023 9.3864 15.8539 9.42585C15.9537 9.50222 16.8385 9.77956 17.2371 9.85937C17.3683 9.8857 17.5078 9.94722 17.5469 9.99613C17.5861 10.045 17.7093 10.4046 17.8208 10.7951C18.0905 11.7402 18.119 11.7868 18.4088 11.7586C18.6429 11.7358 18.6497 11.7235 18.9029 10.8728C19.0442 10.3983 19.1917 9.98915 19.2309 9.96357C19.2701 9.93799 19.5774 9.84355 19.9138 9.75383C20.7492 9.53095 20.926 9.45421 20.9774 9.29217C21.0704 8.99931 20.8954 8.87531 20.0863 8.66091C19.6556 8.54688 19.2713 8.43241 19.2323 8.4066C19.1934 8.3808 19.0462 7.97151 18.9054 7.49703C18.6547 6.65219 18.6446 6.63389 18.4178 6.61176C18.2905 6.59931 18.152 6.63306 18.1101 6.68678Z" fill="url(#paint0_linear_584_756)"/>
<defs>
<linearGradient id="paint0_linear_584_756" x1="0" y1="0" x2="16.5" y2="26" gradientUnits="userSpaceOnUse">
<stop stop-color="#E964FF"/>
<stop offset="1" stop-color="#6C38FF"/>
</linearGradient>
</defs>
</svg>
