<svg width="84" height="86" viewBox="0 0 84 86" fill="none" xmlns="http://www.w3.org/2000/svg">
    <path d="M39.9175 79.8661C38.26 78.4956 36.3861 77.4888 34.3457 76.8744L34.3074 76.8629C34.2404 76.8419 34.1734 76.8227 34.1045 76.8036L34.0816 76.7979C33.9859 76.7711 33.8748 76.7404 33.7619 76.7098C33.6949 76.6945 33.6298 76.6773 33.5648 76.6562C26.0521 74.5374 19.9979 71.8768 19.3337 71.5801C15.1553 69.9321 11.5894 67.1051 9.01691 63.4013C6.36594 59.5847 4.96484 55.0981 4.96484 50.4278C4.96484 46.1308 6.16879 41.9485 8.44844 38.331L8.49055 38.264L8.53648 38.1989C8.67238 38.0056 8.79871 37.8142 8.91164 37.6304C10.2611 35.4752 10.9712 32.9945 10.9712 30.4488C10.9712 27.4533 10.0141 24.6167 8.20344 22.2413L6.42719 19.9119L20.9224 5.41674L23.2365 7.10111C25.5602 8.79123 28.3126 9.6851 31.1952 9.6851C34.3744 9.6851 37.4656 8.55963 39.8984 6.51924L42.0536 4.71045L44.207 6.52115C46.6359 8.56346 49.7252 9.68701 52.9064 9.68701C55.7889 9.68701 58.5375 8.79506 60.8555 7.11068L63.1696 5.42822L77.6667 19.9253L75.8923 22.2547C74.0855 24.6263 73.1304 27.461 73.1304 30.4508C73.1304 32.9831 73.8328 35.4503 75.1631 37.5864C75.3296 37.8276 75.4885 38.0706 75.6378 38.3099C77.927 41.9332 79.1386 46.1231 79.1386 50.4297C79.1386 55.1001 77.7375 59.5866 75.0865 63.4033C72.514 67.107 68.95 69.9321 64.7716 71.582C64.1209 71.873 58.0494 74.5431 50.5138 76.6658C50.4525 76.683 50.3932 76.6983 50.332 76.7136C50.2477 76.7347 50.1673 76.7577 50.085 76.7806C50.085 76.7806 50.02 76.7979 50.0123 76.7998L49.9357 76.8362L49.6869 76.8974C47.6733 77.5137 45.8243 78.5129 44.1859 79.8661L42.0517 81.6328L39.9175 79.8661Z" fill="black"/>
    <path d="M42.0536 9.08598C44.9898 11.5532 48.7758 13.0366 52.9082 13.0366C56.6158 13.0366 60.042 11.8441 62.8269 9.81906L73.2299 20.222C71.067 23.0605 69.7826 26.6054 69.7826 30.4488C69.7826 33.7468 70.7282 36.8246 72.3647 39.4258C72.5159 39.644 72.6614 39.8641 72.8011 40.088C74.6941 43.0797 75.7889 46.6265 75.7889 50.4278C75.7889 58.6525 70.688 65.681 63.4605 68.4966L63.4471 68.5023C63.4471 68.5023 57.2589 71.2834 49.595 73.4425C49.5816 73.4463 49.5682 73.4502 49.5567 73.4521C49.4266 73.4846 49.3002 73.5191 49.172 73.5554C49.0495 73.588 48.927 73.6263 48.8045 73.6626C48.8007 73.6645 48.7968 73.6645 48.793 73.6665C46.2952 74.4187 44.0117 75.6628 42.0517 77.284C40.0917 75.6628 37.8082 74.4187 35.3104 73.6665C35.2127 73.6358 35.1132 73.6071 35.0137 73.5784C34.8586 73.5344 34.7036 73.4923 34.5466 73.4521C34.5409 73.4521 34.5332 73.4502 34.5256 73.4463C26.854 71.2873 20.6563 68.5023 20.6563 68.5023L20.6429 68.4966C13.4154 65.681 8.31441 58.6525 8.31441 50.4278C8.31441 46.638 9.4016 43.1027 11.2831 40.1168C11.4477 39.8813 11.6066 39.6421 11.7578 39.399C13.3829 36.8035 14.3227 33.7372 14.3227 30.4488C14.3227 26.5996 13.0345 23.051 10.8678 20.2105L21.2669 9.81141C24.0557 11.8403 27.4857 13.0366 31.197 13.0366C35.3314 13.0366 39.1174 11.5513 42.0536 9.08598ZM42.0536 0.336797L37.745 3.95438C35.8884 5.51242 33.6241 6.33547 31.197 6.33547C29.0265 6.33547 26.9555 5.66363 25.2079 4.3927L20.5778 1.02395L16.5296 5.07219L6.13047 15.4713L1.98844 19.6133L5.54094 24.2702C6.90375 26.0561 7.62344 28.1921 7.62344 30.445C7.62344 32.361 7.08941 34.2272 6.07879 35.8407L6.07305 35.8484L6.06731 35.8561C5.985 35.9881 5.89121 36.1298 5.79168 36.2733L5.69981 36.4054L5.61367 36.5413C2.99715 40.6948 1.61328 45.4953 1.61328 50.424C1.61328 55.7795 3.22109 60.9264 6.26445 65.3077C9.20254 69.5378 13.2699 72.7707 18.0379 74.6656C19.0217 75.1001 25.1486 77.7587 32.6613 79.8776C32.7436 79.9006 32.8259 79.9235 32.9082 79.9446C32.9963 79.9675 33.0843 79.9905 33.1704 80.0154C33.2145 80.0288 33.2585 80.0403 33.3025 80.0537L33.337 80.0632L33.3771 80.0747C34.9888 80.559 36.4703 81.3552 37.7795 82.4405L42.0498 85.972L46.32 82.4405C47.6312 81.3571 49.1127 80.5609 50.7224 80.0747L50.908 80.0192L50.9425 80.0097L50.9961 79.9943C51.0439 79.9809 51.0899 79.9675 51.1377 79.9561C51.2296 79.9331 51.3215 79.9101 51.4153 79.8833C58.9375 77.7645 65.0702 75.102 66.0598 74.6656C70.8277 72.7707 74.8951 69.5359 77.8332 65.3058C80.8765 60.9245 82.4843 55.7776 82.4843 50.4221C82.4843 45.4838 81.0947 40.6757 78.4686 36.5164C78.3117 36.2638 78.1432 36.0073 77.9691 35.7527C76.9929 34.1602 76.478 32.3284 76.478 30.4431C76.478 28.1921 77.1958 26.0599 78.5548 24.276L82.1034 19.6191L77.9633 15.4789L67.5604 5.07602L63.5121 1.02777L58.882 4.39461C57.1402 5.66172 55.073 6.33164 52.9025 6.33164C50.4736 6.33164 48.2111 5.50859 46.3583 3.95055L42.0498 0.331055L42.0536 0.336797Z" fill="white"/>
    <path d="M42.0536 9.08584C44.9898 11.5531 48.7758 13.0365 52.9083 13.0365C56.6158 13.0365 60.042 11.844 62.827 9.81893L73.2299 20.2219C71.067 23.0604 69.7827 26.6053 69.7827 30.4487C69.7827 33.7466 70.7282 36.8244 72.3647 39.4256C72.5159 39.6438 72.6614 39.864 72.8011 40.0879C74.6941 43.0796 75.789 46.6263 75.789 50.4277C75.789 58.6524 70.688 65.6808 63.4605 68.4964L63.4471 68.5022C63.4471 68.5022 57.2589 71.2833 49.595 73.4424C49.5816 73.4462 49.5682 73.45 49.5568 73.4519C49.4266 73.4845 49.3003 73.5189 49.172 73.5553C49.0495 73.5878 48.927 73.6261 48.8045 73.6625C48.8007 73.6644 48.7969 73.6644 48.793 73.6663C46.2952 74.4185 44.0117 75.6627 42.0517 77.2839C40.0917 75.6627 37.8082 74.4185 35.3104 73.6663C35.2128 73.6357 35.1132 73.607 35.0137 73.5783C34.8587 73.5342 34.7036 73.4921 34.5467 73.4519C34.5409 73.4519 34.5333 73.45 34.5256 73.4462C26.8541 71.2871 20.6563 68.5022 20.6563 68.5022L20.6429 68.4964C13.4154 65.6808 8.31445 58.6524 8.31445 50.4277C8.31445 46.6378 9.40164 43.1026 11.2832 40.1166C11.4478 39.8812 11.6066 39.6419 11.7579 39.3988C13.3829 36.8034 14.3227 33.737 14.3227 30.4487C14.3227 26.5995 13.0345 23.0508 10.8678 20.2104L21.2669 9.81127C24.0557 11.8402 27.4857 13.0365 31.1971 13.0365C35.3314 13.0365 39.1175 11.5512 42.0536 9.08584ZM42.0536 2.83643L38.9758 5.42041C36.8014 7.24643 34.0394 8.25131 31.1971 8.25131C28.6188 8.25131 26.1593 7.45314 24.0825 5.94104L20.775 3.53506L17.8828 6.42721L7.48375 16.8263L4.52461 19.7854L7.06265 23.1121C8.68195 25.2348 9.53754 27.7709 9.53754 30.4487C9.53754 32.7245 8.90207 34.941 7.70195 36.8589L7.69812 36.8646L7.6943 36.8704C7.59477 37.0312 7.48184 37.2015 7.36125 37.3738L7.29617 37.4676L7.23492 37.5652C4.81172 41.4124 3.5293 45.8607 3.5293 50.4277C3.5293 55.3927 5.01844 60.1607 7.83785 64.2204C10.5673 68.15 14.3476 71.1512 18.7786 72.9045C19.594 73.2663 25.6693 75.9192 33.1686 78.0361C33.2451 78.0591 33.3236 78.0801 33.4021 78.0993C33.5016 78.1242 33.5992 78.151 33.6968 78.1797C33.7581 78.1969 33.8174 78.2141 33.8768 78.2333L33.9035 78.2409L33.9303 78.2486C35.787 78.8075 37.4924 79.7243 39.0007 80.9723L42.0498 83.495L45.0989 80.9723C46.6072 79.7243 48.3126 78.8094 50.1693 78.2486L50.3779 78.1854C50.3779 78.1854 50.3913 78.1816 50.397 78.1797L50.4353 78.1701L50.4717 78.1586C50.5368 78.1395 50.5999 78.1222 50.6669 78.105C50.7569 78.084 50.8334 78.0629 50.8928 78.0457C58.4016 75.9287 64.4903 73.2701 65.3171 72.9045C69.7482 71.1493 73.5304 68.1481 76.2598 64.2185C79.0793 60.1588 80.5684 55.3908 80.5684 50.4258C80.5684 45.8473 79.2821 41.3914 76.8455 37.5384C76.6924 37.2953 76.5297 37.0465 76.3613 36.7995C75.1841 34.897 74.5621 32.7015 74.5621 30.4487C74.5621 27.7747 75.4157 25.2405 77.0312 23.1217L79.5654 19.795L76.6082 16.8378L66.2053 6.43486L63.315 3.54463L60.0075 5.94869C57.9365 7.45506 55.4789 8.25131 52.9025 8.25131C50.0582 8.25131 47.2982 7.24643 45.1257 5.42232L42.0479 2.83643H42.0536Z" fill="black"/>
    <path d="M39.9682 35.9242L37.0845 60.8906H28.9731C28.2329 57.056 27.58 52.697 27.0146 47.8137C26.7576 49.9007 26.1562 54.2596 25.2104 60.8906H17.1452L14.2461 35.9242H20.5532L21.2163 44.637L21.8949 53.0414C22.1313 48.6927 22.7276 42.9869 23.6837 35.9242H30.4381C30.5306 36.6541 30.767 39.399 31.1474 44.1589L31.8568 53.6428C32.2166 47.6081 32.818 41.7019 33.661 35.9242H39.9682ZM52.1661 35.9242L55.8826 60.8906H49.2361L48.9123 56.4031H46.5837L46.1982 60.8906H39.4747L42.7748 35.9242H52.1661ZM48.7273 51.9773C48.3983 49.1502 48.0693 45.6599 47.7403 41.5065C47.0824 46.2767 46.6711 49.767 46.5066 51.9773H48.7273ZM68.9132 35.9242L64.179 51.854V60.8906H58.1649V51.854L53.6003 35.9242H59.5682C60.5037 40.7869 61.028 44.0613 61.1411 45.7473C61.5009 43.0846 62.1023 39.8102 62.9453 35.9242H68.9132Z" fill="white"/>
    <path d="M39.9682 35.9242L40.2534 35.9571C40.2628 35.8758 40.237 35.7943 40.1825 35.7332C40.128 35.672 40.0501 35.6371 39.9682 35.6371V35.9242ZM37.0845 60.8906V61.1777C37.2303 61.1777 37.3529 61.0684 37.3697 60.9236L37.0845 60.8906ZM28.9731 60.8906L28.6912 60.945C28.7172 61.0801 28.8355 61.1777 28.9731 61.1777V60.8906ZM27.0146 47.8137L27.2998 47.7807C27.2831 47.6362 27.161 47.5271 27.0157 47.5266C26.8703 47.5261 26.7474 47.6343 26.7297 47.7786L27.0146 47.8137ZM25.2104 60.8906V61.1777C25.3533 61.1777 25.4744 61.0726 25.4946 60.9312L25.2104 60.8906ZM17.1452 60.8906L16.86 60.9237C16.8768 61.0685 16.9995 61.1777 17.1452 61.1777V60.8906ZM14.2461 35.9242V35.6371C14.1642 35.6371 14.0862 35.672 14.0317 35.7332C13.9772 35.7944 13.9515 35.8759 13.9609 35.9573L14.2461 35.9242ZM20.5532 35.9242L20.8395 35.9024C20.8281 35.7527 20.7034 35.6371 20.5532 35.6371V35.9242ZM21.2163 44.637L20.9301 44.6588L20.9302 44.6601L21.2163 44.637ZM21.8949 53.0414L21.6087 53.0645C21.6208 53.2151 21.7476 53.3304 21.8986 53.3285C22.0497 53.3265 22.1734 53.2078 22.1816 53.057L21.8949 53.0414ZM23.6837 35.9242V35.6371C23.54 35.6371 23.4185 35.7433 23.3992 35.8857L23.6837 35.9242ZM30.4381 35.9242L30.7229 35.8881C30.7047 35.7446 30.5827 35.6371 30.4381 35.6371V35.9242ZM31.1474 44.1589L31.4337 44.1375L31.4336 44.1361L31.1474 44.1589ZM31.8568 53.6428L31.5705 53.6642C31.5817 53.8149 31.7079 53.931 31.8589 53.9299C32.01 53.9288 32.1344 53.8107 32.1434 53.6599L31.8568 53.6428ZM33.661 35.9242V35.6371C33.5185 35.6371 33.3975 35.7417 33.3769 35.8827L33.661 35.9242ZM39.683 35.8912L36.7993 60.8577L37.3697 60.9236L40.2534 35.9571L39.683 35.8912ZM37.0845 60.6035H28.9731V61.1777H37.0845V60.6035ZM29.255 60.8362C28.5164 57.0102 27.8646 52.6585 27.2998 47.7807L26.7294 47.8467C27.2955 52.7354 27.9493 57.1018 28.6912 60.945L29.255 60.8362ZM26.7297 47.7786C26.473 49.8623 25.872 54.2185 24.9261 60.8501L25.4946 60.9312C26.4403 54.3007 27.0422 49.939 27.2996 47.8488L26.7297 47.7786ZM25.2104 60.6035H17.1452V61.1777H25.2104V60.6035ZM17.4304 60.8575L14.5313 35.8911L13.9609 35.9573L16.86 60.9237L17.4304 60.8575ZM14.2461 36.2113H20.5532V35.6371H14.2461V36.2113ZM20.267 35.946L20.9301 44.6588L21.5026 44.6152L20.8395 35.9024L20.267 35.946ZM20.9302 44.6601L21.6087 53.0645L22.181 53.0183L21.5025 44.6139L20.9302 44.6601ZM22.1816 53.057C22.4174 48.7192 23.0126 43.022 23.9682 35.9627L23.3992 35.8857C22.4426 42.9519 21.8452 48.6662 21.6082 53.0258L22.1816 53.057ZM23.6837 36.2113H30.4381V35.6371H23.6837V36.2113ZM30.1532 35.9603C30.2447 36.6817 30.4805 39.4174 30.8612 44.1818L31.4336 44.1361C31.0536 39.3806 30.8165 36.6265 30.7229 35.8881L30.1532 35.9603ZM30.8611 44.1803L31.5705 53.6642L32.1431 53.6214L31.4337 44.1375L30.8611 44.1803ZM32.1434 53.6599C32.5027 47.633 33.1033 41.735 33.9451 35.9656L33.3769 35.8827C32.5327 41.6688 31.9305 47.5831 31.5702 53.6257L32.1434 53.6599ZM33.661 36.2113H39.9682V35.6371H33.661V36.2113ZM52.1661 35.9242L52.4501 35.8819C52.4292 35.7412 52.3084 35.6371 52.1661 35.6371V35.9242ZM55.8826 60.8906V61.1777C55.9661 61.1777 56.0455 61.1414 56.1 61.0781C56.1545 61.0148 56.1788 60.931 56.1665 60.8484L55.8826 60.8906ZM49.2361 60.8906L48.9498 60.9113C48.9606 61.0614 49.0856 61.1777 49.2361 61.1777V60.8906ZM48.9123 56.4031L49.1987 56.3825C49.1878 56.2323 49.0629 56.116 48.9123 56.116V56.4031ZM46.5837 56.4031V56.116C46.4347 56.116 46.3104 56.2301 46.2977 56.3786L46.5837 56.4031ZM46.1982 60.8906V61.1777C46.3473 61.1777 46.4715 61.0637 46.4843 60.9152L46.1982 60.8906ZM39.4747 60.8906L39.1901 60.853C39.1792 60.935 39.2043 61.0177 39.2588 61.0799C39.3133 61.1421 39.392 61.1777 39.4747 61.1777V60.8906ZM42.7748 35.9242V35.6371C42.6308 35.6371 42.509 35.7438 42.4901 35.8865L42.7748 35.9242ZM48.7273 51.9773V52.2644C48.8092 52.2644 48.8872 52.2294 48.9417 52.1683C48.9962 52.1071 49.0219 52.0255 49.0124 51.9442L48.7273 51.9773ZM47.7403 41.5065L48.0265 41.4839C48.015 41.3377 47.8952 41.2238 47.7486 41.2195C47.6021 41.2153 47.4759 41.3221 47.4559 41.4673L47.7403 41.5065ZM46.5066 51.9773L46.2203 51.956C46.2144 52.0357 46.2419 52.1142 46.2962 52.1727C46.3506 52.2312 46.4268 52.2644 46.5066 52.2644V51.9773ZM51.8821 35.9664L55.5986 60.9329L56.1665 60.8484L52.4501 35.8819L51.8821 35.9664ZM55.8826 60.6035H49.2361V61.1777H55.8826V60.6035ZM49.5225 60.87L49.1987 56.3825L48.6259 56.4238L48.9498 60.9113L49.5225 60.87ZM48.9123 56.116H46.5837V56.6902H48.9123V56.116ZM46.2977 56.3786L45.9122 60.8661L46.4843 60.9152L46.8698 56.4277L46.2977 56.3786ZM46.1982 60.6035H39.4747V61.1777H46.1982V60.6035ZM39.7593 60.9282L43.0594 35.9618L42.4901 35.8865L39.1901 60.853L39.7593 60.9282ZM42.7748 36.2113H52.1661V35.6371H42.7748V36.2113ZM49.0124 51.9442C48.684 49.1217 48.3553 45.6352 48.0265 41.4839L47.4541 41.5292C47.7832 45.6846 48.1125 49.1787 48.4421 52.0105L49.0124 51.9442ZM47.4559 41.4673C46.7978 46.2382 46.3855 49.7361 46.2203 51.956L46.793 51.9986C46.9567 49.7979 47.3669 46.3152 48.0247 41.5458L47.4559 41.4673ZM46.5066 52.2644H48.7273V51.6902H46.5066V52.2644ZM68.9132 35.9242L69.1884 36.006C69.2143 35.9191 69.1975 35.8251 69.1434 35.7525C69.0892 35.6798 69.0039 35.6371 68.9132 35.6371V35.9242ZM64.179 51.854L63.9038 51.7722C63.8959 51.7987 63.8919 51.8263 63.8919 51.854H64.179ZM64.179 60.8906V61.1777C64.3376 61.1777 64.4661 61.0492 64.4661 60.8906H64.179ZM58.1649 60.8906H57.8777C57.8777 61.0492 58.0063 61.1777 58.1649 61.1777V60.8906ZM58.1649 51.854H58.452C58.452 51.8272 58.4482 51.8006 58.4409 51.7749L58.1649 51.854ZM53.6003 35.9242V35.6371C53.5101 35.6371 53.4252 35.6794 53.371 35.7514C53.3167 35.8233 53.2994 35.9166 53.3243 36.0033L53.6003 35.9242ZM59.5682 35.9242L59.8501 35.8699C59.8241 35.7348 59.7058 35.6371 59.5682 35.6371V35.9242ZM61.1411 45.7473L60.8546 45.7665C60.8645 45.9136 60.9841 46.0293 61.1314 46.0342C61.2787 46.0392 61.4059 45.9318 61.4256 45.7857L61.1411 45.7473ZM62.9453 35.9242V35.6371C62.8102 35.6371 62.6934 35.7313 62.6648 35.8633L62.9453 35.9242ZM68.638 35.8424L63.9038 51.7722L64.4542 51.9358L69.1884 36.006L68.638 35.8424ZM63.8919 51.854V60.8906H64.4661V51.854H63.8919ZM64.179 60.6035H58.1649V61.1777H64.179V60.6035ZM58.452 60.8906V51.854H57.8777V60.8906H58.452ZM58.4409 51.7749L53.8763 35.8451L53.3243 36.0033L57.8889 51.9331L58.4409 51.7749ZM53.6003 36.2113H59.5682V35.6371H53.6003V36.2113ZM59.2862 35.9784C60.2223 40.8438 60.7429 44.101 60.8546 45.7665L61.4276 45.7281C61.3131 44.0216 60.7851 40.73 59.8501 35.8699L59.2862 35.9784ZM61.4256 45.7857C61.7841 43.1332 62.3838 39.8668 63.2259 35.985L62.6648 35.8633C61.8208 39.7536 61.2178 43.036 60.8566 45.7088L61.4256 45.7857ZM62.9453 36.2113H68.9132V35.6371H62.9453V36.2113Z" fill="white"/>
    <path d="M41.1121 64.6361V73.7148H38.8467V68.8474C38.8467 68.1446 38.8298 67.7222 38.7962 67.5801C38.7625 67.4381 38.6691 67.3315 38.5158 67.2605C38.3663 67.1857 38.0298 67.1483 37.5064 67.1483H37.2821V66.0885C38.3775 65.853 39.2093 65.3689 39.7775 64.6361H41.1121ZM46.1751 64.6361V73.7148H43.9097V68.8474C43.9097 68.1446 43.8928 67.7222 43.8592 67.5801C43.8255 67.4381 43.7321 67.3315 43.5788 67.2605C43.4293 67.1857 43.0928 67.1483 42.5694 67.1483H42.3451V66.0885C43.4405 65.853 44.2723 65.3689 44.8405 64.6361H46.1751Z" fill="white"/>
    <path d="M41.1121 64.6361H41.3992C41.3992 64.4776 41.2707 64.349 41.1121 64.349V64.6361ZM41.1121 73.7148V74.002C41.2707 74.002 41.3992 73.8734 41.3992 73.7148H41.1121ZM38.8467 73.7148H38.5595C38.5595 73.8734 38.6881 74.002 38.8467 74.002V73.7148ZM38.5158 67.2605L38.3874 67.5174L38.3951 67.521L38.5158 67.2605ZM37.2821 67.1483H36.995C36.995 67.3069 37.1236 67.4354 37.2821 67.4354V67.1483ZM37.2821 66.0885L37.2218 65.8078C37.0895 65.8363 36.995 65.9532 36.995 66.0885H37.2821ZM39.7775 64.6361V64.349C39.6888 64.349 39.605 64.3901 39.5506 64.4602L39.7775 64.6361ZM40.825 64.6361V73.7148H41.3992V64.6361H40.825ZM41.1121 73.4277H38.8467V74.002H41.1121V73.4277ZM39.1338 73.7148V68.8474H38.5595V73.7148H39.1338ZM39.1338 68.8474C39.1338 68.4944 39.1296 68.2088 39.1209 67.9921C39.1127 67.7849 39.0998 67.6163 39.0756 67.514L38.5168 67.6463C38.5262 67.686 38.5386 67.7997 38.5472 68.0149C38.5554 68.2207 38.5595 68.4977 38.5595 68.8474H39.1338ZM39.0756 67.514C39.0183 67.2721 38.8555 67.1015 38.6365 67L38.3951 67.521C38.4826 67.5616 38.5068 67.604 38.5168 67.6463L39.0756 67.514ZM38.6442 67.0037C38.5217 66.9424 38.3577 66.9104 38.183 66.891C38.0002 66.8707 37.7737 66.8612 37.5064 66.8612V67.4354C37.7626 67.4354 37.9659 67.4447 38.1196 67.4617C38.2814 67.4797 38.3604 67.5038 38.3874 67.5173L38.6442 67.0037ZM37.5064 66.8612H37.2821V67.4354H37.5064V66.8612ZM37.5692 67.1483V66.0885H36.995V67.1483H37.5692ZM37.3425 66.3692C38.4896 66.1225 39.3865 65.6088 40.0044 64.8121L39.5506 64.4602C39.032 65.1289 38.2654 65.5834 37.2218 65.8078L37.3425 66.3692ZM39.7775 64.9232H41.1121V64.349H39.7775V64.9232ZM46.1751 64.6361H46.4622C46.4622 64.4776 46.3337 64.349 46.1751 64.349V64.6361ZM46.1751 73.7148V74.002C46.3337 74.002 46.4622 73.8734 46.4622 73.7148H46.1751ZM43.9097 73.7148H43.6225C43.6225 73.8734 43.7511 74.002 43.9097 74.002V73.7148ZM43.5788 67.2605L43.4503 67.5174L43.4581 67.521L43.5788 67.2605ZM42.3451 67.1483H42.058C42.058 67.3069 42.1866 67.4354 42.3451 67.4354V67.1483ZM42.3451 66.0885L42.2848 65.8078C42.1525 65.8363 42.058 65.9532 42.058 66.0885H42.3451ZM44.8405 64.6361V64.349C44.7518 64.349 44.668 64.3901 44.6136 64.4602L44.8405 64.6361ZM45.888 64.6361V73.7148H46.4622V64.6361H45.888ZM46.1751 73.4277H43.9097V74.002H46.1751V73.4277ZM44.1968 73.7148V68.8474H43.6225V73.7148H44.1968ZM44.1968 68.8474C44.1968 68.4944 44.1925 68.2088 44.1839 67.9921C44.1757 67.7849 44.1628 67.6163 44.1386 67.514L43.5798 67.6463C43.5892 67.686 43.6016 67.7997 43.6102 68.0149C43.6183 68.2207 43.6225 68.4977 43.6225 68.8474H44.1968ZM44.1386 67.514C44.0813 67.2721 43.9185 67.1015 43.6995 67L43.4581 67.521C43.5456 67.5616 43.5698 67.604 43.5798 67.6463L44.1386 67.514ZM43.7072 67.0037C43.5847 66.9424 43.4206 66.9104 43.246 66.891C43.0632 66.8707 42.8367 66.8612 42.5694 66.8612V67.4354C42.8256 67.4354 43.0289 67.4447 43.1826 67.4617C43.3444 67.4797 43.4234 67.5038 43.4504 67.5173L43.7072 67.0037ZM42.5694 66.8612H42.3451V67.4354H42.5694V66.8612ZM42.6322 67.1483V66.0885H42.058V67.1483H42.6322ZM42.4055 66.3692C43.5526 66.1225 44.4495 65.6088 45.0674 64.8121L44.6136 64.4602C44.095 65.1289 43.3284 65.5834 42.2848 65.8078L42.4055 66.3692ZM44.8405 64.9232H46.1751V64.349H44.8405V64.9232Z" fill="white"/>
    <path d="M69.731 30.4488C69.731 30.5158 69.731 30.5809 69.7329 30.6479C61.7647 29.3214 52.4011 28.5558 42.3829 28.5558C32.3647 28.5558 22.4001 29.3693 14.2691 30.778C14.2691 30.6689 14.271 30.5579 14.271 30.4488C14.271 26.5996 12.9829 23.0509 10.8162 20.2105L21.2153 9.81137C24.0041 11.8403 27.4341 13.0366 31.1454 13.0366C35.2798 13.0366 39.0658 11.5512 42.002 9.08594C44.9382 11.5532 48.7242 13.0366 52.8566 13.0366C56.5642 13.0366 59.9903 11.8441 62.7753 9.81902L73.1782 20.222C71.0153 23.0605 69.731 26.6054 69.731 30.4488Z" fill="white"/>
    <path d="M23.8355 17.0626L24.016 25.7428L21.2397 26.1222C20.807 24.8443 20.3797 23.3828 19.9578 21.7378C19.9675 22.4642 19.9655 23.9843 19.9518 26.2981L17.1913 26.6753L15.0315 18.2655L17.1903 17.9705L17.8247 20.9217L18.4499 23.7666C18.3275 22.2671 18.2648 20.2863 18.2617 17.8241L20.5736 17.5083C20.6394 17.7538 20.8487 18.6822 21.2015 20.2936L21.8878 23.5066C21.7287 21.4242 21.6584 19.3745 21.6767 17.3575L23.8355 17.0626Z" fill="black"/>
    <path d="M24.4831 17.0596L28.2081 16.7278L28.3612 18.447L26.8702 18.5798L27.0153 20.2088L28.4108 20.0845L28.5564 21.7188L27.1608 21.8431L27.3291 23.7321L28.9687 23.5861L29.1218 25.3053L25.2483 25.6503L24.4831 17.0596Z" fill="black"/>
    <path d="M29.1044 16.6517L31.3382 16.5249C32.0438 16.4848 32.5806 16.5094 32.9485 16.5988C33.3199 16.688 33.6269 16.8947 33.8694 17.2188C34.1117 17.5395 34.254 18.0721 34.2963 18.8167C34.3249 19.3202 34.2651 19.6757 34.1168 19.8834C33.972 20.0908 33.6705 20.2609 33.212 20.3936C33.7363 20.4812 34.0984 20.6563 34.2983 20.9189C34.498 21.1779 34.6137 21.5875 34.6456 22.1477L34.6909 22.9455C34.7239 23.527 34.681 23.9617 34.5621 24.2494C34.4468 24.537 34.2467 24.7405 33.9618 24.8598C33.6769 24.9791 33.0841 25.0644 32.1835 25.1155L29.5933 25.2626L29.1044 16.6517ZM31.4272 17.9978L31.5359 19.9125C31.6314 19.9036 31.7058 19.8976 31.759 19.8945C31.9788 19.882 32.1159 19.8209 32.1701 19.7111C32.2241 19.5978 32.2367 19.2858 32.2077 18.7752C32.1924 18.5057 32.1569 18.3192 32.1012 18.2157C32.0453 18.1086 31.9758 18.0431 31.8926 18.0194C31.813 17.9955 31.6579 17.9883 31.4272 17.9978ZM31.612 21.2528L31.7488 23.6622C32.0638 23.6336 32.2613 23.5726 32.3414 23.4791C32.425 23.3855 32.4569 23.1649 32.4372 22.8174L32.3916 22.0143C32.3707 21.6455 32.319 21.4243 32.2365 21.3508C32.1541 21.2772 31.9459 21.2445 31.612 21.2528Z" fill="black"/>
    <path d="M41.8958 18.8117L39.813 18.8397L39.8044 18.2005C39.8004 17.9022 39.7712 17.7126 39.7169 17.6316C39.6625 17.5507 39.5732 17.511 39.4489 17.5127C39.3139 17.5145 39.2117 17.5709 39.1422 17.682C39.0762 17.793 39.0447 17.9603 39.0477 18.184C39.0515 18.4717 39.0935 18.6878 39.1736 18.8323C39.2501 18.9769 39.4638 19.1499 39.8146 19.3512C40.8204 19.9308 41.4555 20.4089 41.7199 20.7853C41.9842 21.1618 42.122 21.7727 42.1334 22.6178C42.1417 23.2322 42.0749 23.6859 41.9333 23.9791C41.7951 24.2722 41.5214 24.521 41.1122 24.7254C40.7029 24.9262 40.2248 25.0303 39.6779 25.0377C39.0777 25.0457 38.5631 24.939 38.1339 24.7174C37.7082 24.4958 37.4274 24.2101 37.2912 23.8603C37.1551 23.5105 37.0827 23.0125 37.074 22.3662L37.0664 21.8015L39.1492 21.7735L39.1633 22.8229C39.1676 23.1461 39.1988 23.3534 39.2569 23.445C39.3185 23.5365 39.4239 23.5813 39.573 23.5793C39.7222 23.5773 39.8315 23.5172 39.9009 23.3991C39.9739 23.2809 40.0089 23.1064 40.0058 22.8755C39.999 22.3677 39.9253 22.0366 39.7847 21.8822C39.6405 21.7279 39.2872 21.4716 38.7248 21.1133C38.1623 20.7515 37.7893 20.4883 37.606 20.3238C37.4226 20.1594 37.2686 19.9306 37.1439 19.6375C37.0228 19.3443 36.9591 18.9686 36.953 18.5105C36.9441 17.85 37.021 17.3659 37.1838 17.0583C37.3502 16.7506 37.6204 16.509 37.9946 16.3335C38.3686 16.1544 38.822 16.0613 39.3547 16.0542C39.9371 16.0463 40.4337 16.1338 40.8447 16.3165C41.2591 16.4992 41.534 16.7335 41.6692 17.0193C41.808 17.3016 41.882 17.7854 41.8912 18.4708L41.8958 18.8117Z" fill="black"/>
    <path d="M47.3481 16.2754L47.3216 18.0012L45.9899 17.9808L45.884 24.8787L43.6415 24.8443L43.7474 17.9463L42.4211 17.926L42.4476 16.2001L47.3481 16.2754Z" fill="black"/>
    <path d="M53.0434 16.5276L52.7779 22.2855C52.7478 22.9383 52.7053 23.3967 52.6505 23.6608C52.5958 23.9214 52.4573 24.187 52.2351 24.4576C52.013 24.7247 51.7266 24.923 51.3757 25.0526C51.0286 25.1788 50.6227 25.2312 50.1579 25.2098C49.6435 25.186 49.1933 25.08 48.8074 24.8915C48.4214 24.7031 48.1372 24.4678 47.9547 24.1856C47.7722 23.9034 47.6701 23.6107 47.6485 23.3075C47.6271 23.0008 47.6388 22.3614 47.6836 21.3893L47.9187 16.2913L50.1591 16.3946L49.8612 22.8549C49.8439 23.231 49.8523 23.4731 49.8864 23.5814C49.9242 23.6862 50.0052 23.7415 50.1294 23.7472C50.2713 23.7538 50.3644 23.7012 50.4086 23.5895C50.4566 23.4743 50.4905 23.2022 50.5103 22.7729L50.803 16.4242L53.0434 16.5276Z" fill="black"/>
    <path d="M54.0367 16.5884L55.7091 16.7256C56.7887 16.8142 57.5138 16.9236 57.8844 17.0538C58.2586 17.1842 58.5355 17.3709 58.7151 17.6137C58.8947 17.8565 58.9978 18.1197 59.0245 18.4034C59.0514 18.6835 59.0314 19.2307 58.9646 20.0448L58.7177 23.0552C58.6544 23.8268 58.5748 24.3406 58.479 24.5964C58.387 24.849 58.2446 25.0422 58.0519 25.176C57.8595 25.3064 57.6281 25.3907 57.3577 25.4291C57.0875 25.464 56.6853 25.4595 56.1508 25.4156L53.3315 25.1843L54.0367 16.5884ZM56.1513 18.2425L55.6874 23.897C56.0095 23.9234 56.2129 23.876 56.2977 23.7547C56.3828 23.6298 56.4489 23.2806 56.4959 22.7072L56.7699 19.3676C56.8018 18.9783 56.8099 18.7277 56.7941 18.616C56.7784 18.5042 56.7283 18.4199 56.6438 18.3631C56.5597 18.3027 56.3955 18.2625 56.1513 18.2425Z" fill="black"/>
    <path d="M62.3618 17.3737L61.4019 25.9449L59.1731 25.6953L60.133 17.1241L62.3618 17.3737Z" fill="black"/>
    <path d="M67.7061 23.213C67.5813 24.0705 67.4717 24.6755 67.3774 25.0278C67.2871 25.3771 67.1132 25.6838 66.8559 25.9478C66.6021 26.2124 66.2826 26.3974 65.8976 26.5028C65.5126 26.6083 65.0794 26.626 64.5979 26.5559C64.141 26.4894 63.7406 26.3558 63.3965 26.155C63.0566 25.9512 62.7976 25.6838 62.6196 25.3529C62.4417 25.0219 62.3572 24.6777 62.3662 24.3201C62.3752 23.9625 62.4436 23.3444 62.5715 22.4658L62.784 21.0055C62.9088 20.148 63.0163 19.5445 63.1066 19.1952C63.201 18.8429 63.3751 18.5344 63.6289 18.2699C63.8862 18.0059 64.2074 17.8212 64.5924 17.7157C64.9774 17.6102 65.4107 17.5925 65.8921 17.6626C66.349 17.7291 66.7475 17.8642 67.0874 18.068C67.4315 18.2688 67.6925 18.5347 67.8704 18.8656C68.0483 19.1966 68.1328 19.5409 68.1238 19.8984C68.1149 20.256 68.0465 20.8741 67.9186 21.7527L67.7061 23.213ZM65.8948 20.0855C65.9526 19.6883 65.9666 19.432 65.9368 19.3164C65.911 19.1978 65.8295 19.1285 65.6925 19.1086C65.5765 19.0917 65.4802 19.1243 65.4037 19.2065C65.3311 19.2857 65.2629 19.5449 65.199 19.9842L64.619 23.9696C64.5469 24.4651 64.5217 24.7737 64.5435 24.8953C64.5688 25.0174 64.6552 25.0892 64.8028 25.1107C64.954 25.1327 65.0603 25.08 65.1219 24.9526C65.1835 24.8252 65.2509 24.5102 65.3241 24.0076L65.8948 20.0855Z" fill="black"/>
</svg>
