<svg width="16" height="15" viewBox="0 0 16 15" fill="none" xmlns="http://www.w3.org/2000/svg">
<g opacity="0.2" clip-path="url(#clip0_584_639)">
<path d="M11.3344 0.56543L9.8219 1.9834L13.8844 5.79199L15.3969 4.37402C16.1782 3.6416 16.1782 2.45508 15.3969 1.72266L14.1657 0.56543C13.3844 -0.166992 12.1188 -0.166992 11.3375 0.56543H11.3344ZM9.11565 2.64551L1.83128 9.47754C1.50628 9.78223 1.26878 10.1602 1.13753 10.5732L0.0312776 14.0977C-0.0468474 14.3467 0.0250276 14.6133 0.218778 14.7949C0.412528 14.9766 0.696903 15.0439 0.959403 14.9736L4.71878 13.9365C5.1594 13.8135 5.56253 13.5908 5.88753 13.2861L13.1782 6.4541L9.11565 2.64551Z" fill="white"/>
</g>
<defs>
<clipPath id="clip0_584_639">
<rect width="16" height="15" fill="white"/>
</clipPath>
</defs>
</svg>
